<?xml version="1.0" standalone="no"?>
<svg xmlns="http://www.w3.org/2000/svg" viewBox="0 0 180.92076923076922 50.28" width="180.92076923076922" height="50.28"><rect fill="#008388" width="180.92076923076922" height="50.28" x="0" y="0"></rect><g fill="white" color="white" transform="translate(12 12) scale(0.5053847)"><svg width="41.0" height="52.0" x="0.0" y="0.0" viewBox="0 0 41 52"><path fill="currentColor" fill-rule="evenodd" d="M20.07.578C9.017.578 0 9.594 0 20.648c0 5.528 2.254 10.546 5.584 14.324l14.184-14.62 14.487 14.62c3.633-3.778 5.887-8.796 5.887-14.323C40.142 9.594 31.125.578 20.07.578m-6.639 43.446h5.978v-5.978h-5.978v5.978zm7.299 0h5.979v-5.978h-5.98v5.978zm-7.299 7.461h5.978v-5.978h-5.978v5.978zm7.299 0h5.979v-5.978h-5.98v5.978z"></path></svg></g><path fill="white" fill-rule="nonzero" d="M2.96 25.80L0 25.80L0 0.48L14.88 0.48L14.88 3L2.96 3L2.96 11.40L13.00 11.40L13.00 13.92L2.96 13.92L2.96 25.80ZM33.60 25.80L20.68 25.80L20.68 0.48L23.64 0.48L23.64 23.28L33.60 23.28L33.60 25.80ZM42.76 15.88L34.20 0.48L37.32 0.48L44.20 13.28L51.08 0.48L54.20 0.48L45.68 15.88L45.68 25.80L42.76 25.80L42.76 15.88ZM58.40 25.76L58.40 25.76L58.40 0.48Q61.64 0 64.92 0L64.92 0Q69.52 0 71.72 2.20L71.72 2.20Q73.44 3.96 73.44 6.84L73.44 6.84Q73.44 8.84 72.22 10.32Q71 11.80 69 12.28L69 12.28L69 12.32Q71.44 12.72 72.84 14.54Q74.24 16.36 74.24 19.12L74.24 19.12Q74.24 22.76 71.40 24.64L71.40 24.64Q68.96 26.28 64.92 26.28L64.92 26.28Q61.96 26.28 58.40 25.76ZM61.36 2.64L61.36 2.64L61.36 11.16L65.52 11.16Q67.68 11.16 69.02 10.06Q70.36 8.96 70.36 7.12L70.36 7.12Q70.36 2.36 64.84 2.36L64.84 2.36Q62.72 2.36 61.36 2.64ZM65.52 13.64L61.36 13.64L61.36 23.64Q63.04 23.88 65.28 23.88L65.28 23.88Q71.08 23.88 71.08 19.08L71.08 19.08Q71.08 16.52 69.62 15.08Q68.16 13.64 65.52 13.64L65.52 13.64ZM82.80 5.56L82.80 25.80L79.84 25.80L79.84 0.48L82.52 0.48Q86.16 5.96 95.20 21.12L95.20 21.12L95.20 0.48L98.16 0.48L98.16 25.80L95.40 25.80Q93.24 22.56 86.60 11.80L86.60 11.80Q83.80 7.24 82.80 5.56L82.80 5.56ZM105.36 25.76L105.36 25.76L105.36 0.48Q108.60 0 111.88 0L111.88 0Q116.48 0 118.68 2.20L118.68 2.20Q120.40 3.96 120.40 6.84L120.40 6.84Q120.40 8.84 119.18 10.32Q117.96 11.80 115.96 12.28L115.96 12.28L115.96 12.32Q118.40 12.72 119.80 14.54Q121.20 16.36 121.20 19.12L121.20 19.12Q121.20 22.76 118.36 24.64L118.36 24.64Q115.92 26.28 111.88 26.28L111.88 26.28Q108.92 26.28 105.36 25.76ZM108.32 2.64L108.32 2.64L108.32 11.16L112.48 11.16Q114.64 11.16 115.98 10.06Q117.32 8.96 117.32 7.12L117.32 7.12Q117.32 2.36 111.80 2.36L111.80 2.36Q109.68 2.36 108.32 2.64ZM112.48 13.64L108.32 13.64L108.32 23.64Q110.00 23.88 112.24 23.88L112.24 23.88Q118.04 23.88 118.04 19.08L118.04 19.08Q118.04 16.52 116.58 15.08Q115.12 13.64 112.48 13.64L112.48 13.64Z" transform="translate(47.721 12) scale(1)"></path></svg>